<svg xmlns="http://www.w3.org/2000/svg" width="24" height="24" viewBox="0 0 24 24" fill="none" stroke="currentColor" stroke-width="1.75" stroke-linecap="round" stroke-linejoin="round">

<circle cx="12" cy="12" r="3"/>
<path d="M19.4 15a1 1 0 0 0 .2-1.1l-0.6-1.1a7.4 7.4 0 0 0 0-1.6l0.6-1.1a1 1 0 0 0-0.2-1.1l-1.1-1.1a1 1 0 0 0-1.1-0.2l-1.1 0.6a7.4 7.4 0 0 0-1.6 0l-1.1-0.6a1 1 0 0 0-1.1 0.2L9 6.6a1 1 0 0 0-0.2 1.1l0.6 1.1a7.4 7.4 0 0 0 0 1.6L8.8 11.5a1 1 0 0 0 0.2 1.1L10 13.7a7.4 7.4 0 0 0 1.6 0l1.1 0.6a1 1 0 0 0 1.1-0.2l1.1-1.1a1 1 0 0 0 0.2-1.1l-0.6-1.1a7.4 7.4 0 0 0 0-1.6l0.6-1.1a1 1 0 0 0-0.2-1.1z" fill="none"/>

</svg>
